<svg xmlns="http://www.w3.org/2000/svg" width="16" viewBox="0 0 24 24"><g class="jp-icon3" fill="#616161"><path d="M12 2C10.9 2 10 2.9 10 4C10 4.1 10 4.19 10 4.29C7.12 5.14 5 7.82 5 11V17L3 19V20H11.5A6.5 6.5 0 0 1 11.03 18H7V11A5 5 0 0 1 12 6A5 5 0 0 1 17 11V11A6.5 6.5 0 0 1 17.5 11A6.5 6.5 0 0 1 19 11.18V11C19 7.82 16.88 5.14 14 4.29C14 4.19 14 4.1 14 4C14 2.9 13.11 2 12 2M10 21C10 22.11 10.9 23 12 23C12.5 23 12.97 22.81 13.33 22.5A6.5 6.5 0 0 1 12.03 21Z M21 16.5C21 18.9853 18.9853 21 16.5 21C14.0147 21 12 18.9853 12 16.5C12 14.0147 14.0147 12 16.5 12C18.9853 12 21 14.0147 21 16.5ZM13.2274 16.5C13.2274 18.3074 14.6926 19.7726 16.5 19.7726C18.3074 19.7726 19.7726 18.3074 19.7726 16.5C19.7726 14.6926 18.3074 13.2274 16.5 13.2274C14.6926 13.2274 13.2274 14.6926 13.2274 16.5Z M17.5214 16.2087H16.9505V14.3957C16.9505 14.1759 16.7405 14 16.4719 14C16.21 14 16 14.1759 16 14.3957V16.6043C16 16.8224 16.21 17 16.4702 17H17.5214C17.79 17 18 16.8224 18 16.6043C18 16.3864 17.7833 16.2087 17.5214 16.2087Z" /></g></svg>
