<svg width="16" data-icon="notify:bell-off" version="1.1" viewBox="0 0 24 24" xmlns="http://www.w3.org/2000/svg">
 <g class="jp-icon3" transform="matrix(1.0469 0 0 1.0469 2.742 9.1036)" fill="#616161">
  <path d="m8.6231-7.7332c-1.1 0-2 0.89996-2 2v0.28997c-2.88 0.85-5 3.53-5 6.71v6l-2 2.0001v0.99998h8.4999c-0.2617-0.63754-0.42032-1.3127-0.46997-2.0001h-4.0301v-7c0-2.7614 2.2386-5 5-5 2.7614-2e-7 5 2.2386 5 5 0.1666-0.00641 0.33338-0.00641 0.49999 0 0.5053 0.00149 1.0087 0.061905 1.5 0.18001v-0.18001c0-3.18-2.12-5.86-5-6.71v-0.28997c0-1.1-0.88996-2-2-2zm4.4165 9.6412c-2.7748-5.59e-5 -5.0241 2.2493-5.024 5.024-1.084e-4 2.7748 2.2492 5.0242 5.024 5.0241 2.7747 5.3e-5 5.0242-2.2494 5.0241-5.0241 1.08e-4 -2.7747-2.2494-5.0241-5.0241-5.024zm0 1.2715c2.0726-4.303e-4 3.7529 1.6799 3.7525 3.7525 1.53e-4 0.73305-0.21004 1.4171-0.57337 1.995l-5.1741-5.1741c0.5779-0.36336 1.2619-0.57349 1.995-0.57337zm-3.0642 1.5856 5.2313 5.2313c-0.6121 0.43363-1.3598 0.68846-2.1671 0.68833-2.0726 4.3e-4 -3.7529-1.68-3.7525-3.7527-1.508e-4 -0.80723 0.25471-1.5549 0.68833-2.167zm-3.3523 6.5017c0 1.11 0.89996 2 2 2 0.5 0 0.96997-0.18999 1.33-0.49999-0.50757-0.4305-0.94597-0.93636-1.3-1.5z"/>
 </g>
</svg>
