<svg width="16" data-icon="notify:bell-clock" version="1.1" viewBox="0 0 24 24" xmlns="http://www.w3.org/2000/svg">
 <g class="jp-icon3" transform="matrix(1.0188 0 0 1.0188 2.9556 9.1817)" fill="#616161">
  <path d="m8.6217-7.7328c-1.1 0-1.9986 0.8986-1.9986 1.9986v0.29044c-2.88 0.85-5.0008 3.5318-5.0008 6.7118v5.9987l-1.9986 1.9986v1.0007h8.5005c-0.2617-0.63754-0.42196-1.3112-0.47161-1.9986h-4.0288v-6.9994c0-2.7614 2.2365-5.0008 4.9979-5.0008 2.7614-2e-7 5.0008 2.2394 5.0008 5.0008 0.1666-0.00641 0.33376-0.00641 0.50037 0 0.5053 0.00149 1.0098 0.060192 1.5011 0.17829v-0.17829c0-3.18-2.1208-5.8618-5.0008-6.7118v-0.29044c0-1.1-0.89147-1.9986-2.0015-1.9986zm4.5666 9.9067c-2.7294-8.69e-5 -4.9405 2.2139-4.9404 4.9433-8.69e-5 2.7294 2.211 4.9405 4.9404 4.9404 2.7294 8.7e-5 4.9434-2.211 4.9433-4.9404 8.7e-5 -2.7294-2.2139-4.9434-4.9433-4.9433zm0 1.2509c2.0387-3.651e-4 3.6927 1.6536 3.6924 3.6924 3.65e-4 2.0387-1.6536 3.6899-3.6924 3.6895-2.0387 3.65e-4 -3.6899-1.6508-3.6895-3.6895-3.65e-4 -2.0387 1.6508-3.6927 3.6895-3.6924zm-0.42272 1.0726c-0.25204 0-0.45436 0.20232-0.45436 0.45436v2.4702c0 0.24362 0.19107 0.44142 0.43135 0.45436 0.0077 0.00108 0.01521-6.478e-4 0.02301 0 0.0127 0.00108 0.02439 0.00288 0.03738 0.00288h1.4091c0.25204 0 0.54063-0.20232 0.54063-0.45436 0-0.25204-0.21957-0.45436-0.47161-0.45436h-1.0611v-2.0187c0-0.25204-0.20232-0.45436-0.45436-0.45436zm-6.1425 6.7693c0 1.11 0.8986 1.9986 1.9986 1.9986 0.5 0 0.97144-0.18749 1.3314-0.49749-0.50757-0.4305-0.94582-0.9375-1.2998-1.5011z"/>
 </g>
</svg>
